<?xml version="1.0" encoding="UTF-8"?>
<svg xmlns="http://www.w3.org/2000/svg" xmlns:xlink="http://www.w3.org/1999/xlink" width="20px" height="20px" viewBox="0 0 20 20" version="1.1">
<g id="surface1">
<path style=" stroke:none;fill-rule:nonzero;fill:rgb(0%,0%,0%);fill-opacity:1;" d="M 17.511719 16.589844 L 13.085938 12.160156 C 13.898438 11.144531 14.386719 9.851562 14.386719 8.445312 C 14.386719 5.160156 11.726562 2.5 8.449219 2.5 C 5.167969 2.5 2.511719 5.164062 2.511719 8.445312 C 2.511719 11.726562 5.171875 14.390625 8.449219 14.390625 C 9.863281 14.390625 11.160156 13.894531 12.179688 13.070312 L 16.601562 17.5 Z M 4.691406 12.210938 C 3.6875 11.207031 3.136719 9.871094 3.136719 8.449219 C 3.136719 7.027344 3.691406 5.691406 4.691406 4.6875 C 5.691406 3.683594 7.03125 3.125 8.449219 3.125 C 9.867188 3.125 11.203125 3.679688 12.207031 4.683594 C 13.210938 5.6875 13.761719 7.023438 13.761719 8.445312 C 13.761719 9.867188 13.207031 11.203125 12.207031 12.207031 C 11.203125 13.210938 9.867188 13.765625 8.449219 13.765625 C 7.03125 13.769531 5.695312 13.214844 4.691406 12.210938 Z M 4.691406 12.210938 "/>
</g>
</svg>
