<svg display="none" xmlns="http://www.w3.org/2000/svg">
    <symbol id="basket" viewBox="0 0 20 20">
        <path style=" stroke:none;fill-rule:nonzero;fill:rgb(0%,0%,0%);fill-opacity:1;"
              d="M 18.75 8.125 L 13.554688 8.125 L 11.488281 2.6875 L 10.320312 3.125 L 12.195312 8.125 L 7.757812 8.125 L 9.632812 3.125 L 8.519531 2.6875 L 6.445312 8.125 L 1.25 8.125 L 1.25 9.375 L 1.957031 9.375 L 3.125 17.585938 C 3.167969 17.898438 3.4375 18.128906 3.75 18.125 L 16.25 18.125 C 16.5625 18.128906 16.832031 17.898438 16.875 17.585938 L 18.042969 9.375 L 18.75 9.375 Z M 15.707031 16.875 L 4.292969 16.875 L 3.21875 9.375 L 16.78125 9.375 Z M 15.707031 16.875 "/>
    </symbol>
    <symbol id="search" viewBox="0 0 20 20">
        <path style=" stroke:none;fill-rule:nonzero;fill:rgb(0%,0%,0%);fill-opacity:1;"
              d="M 17.511719 16.589844 L 13.085938 12.160156 C 13.898438 11.144531 14.386719 9.851562 14.386719 8.445312 C 14.386719 5.160156 11.726562 2.5 8.449219 2.5 C 5.167969 2.5 2.511719 5.164062 2.511719 8.445312 C 2.511719 11.726562 5.171875 14.390625 8.449219 14.390625 C 9.863281 14.390625 11.160156 13.894531 12.179688 13.070312 L 16.601562 17.5 Z M 4.691406 12.210938 C 3.6875 11.207031 3.136719 9.871094 3.136719 8.449219 C 3.136719 7.027344 3.691406 5.691406 4.691406 4.6875 C 5.691406 3.683594 7.03125 3.125 8.449219 3.125 C 9.867188 3.125 11.203125 3.679688 12.207031 4.683594 C 13.210938 5.6875 13.761719 7.023438 13.761719 8.445312 C 13.761719 9.867188 13.207031 11.203125 12.207031 12.207031 C 11.203125 13.210938 9.867188 13.765625 8.449219 13.765625 C 7.03125 13.769531 5.695312 13.214844 4.691406 12.210938 Z M 4.691406 12.210938 "/>
    </symbol>
    <symbol id="menu" viewBox="0 0 19 13">
        <path style=" stroke:none;fill-rule:evenodd;fill:rgb(0%,0%,0%);fill-opacity:1;"
              d="M 0 13 L 19 13 L 19 10.832031 L 0 10.832031 Z M 0 7.582031 L 19 7.582031 L 19 5.417969 L 0 5.417969 Z M 0 0 L 0 2.167969 L 19 2.167969 L 19 0 Z M 0 0 "/>
    </symbol>
    <symbol id="cross" viewBox="0 0 30 30" width="20px" height="20px">
        <path
            d="M 7 4 C 6.744125 4 6.4879687 4.0974687 6.2929688 4.2929688 L 4.2929688 6.2929688 C 3.9019687 6.6839688 3.9019687 7.3170313 4.2929688 7.7070312 L 11.585938 15 L 4.2929688 22.292969 C 3.9019687 22.683969 3.9019687 23.317031 4.2929688 23.707031 L 6.2929688 25.707031 C 6.6839688 26.098031 7.3170313 26.098031 7.7070312 25.707031 L 15 18.414062 L 22.292969 25.707031 C 22.682969 26.098031 23.317031 26.098031 23.707031 25.707031 L 25.707031 23.707031 C 26.098031 23.316031 26.098031 22.682969 25.707031 22.292969 L 18.414062 15 L 25.707031 7.7070312 C 26.098031 7.3170312 26.098031 6.6829688 25.707031 6.2929688 L 23.707031 4.2929688 C 23.316031 3.9019687 22.682969 3.9019687 22.292969 4.2929688 L 15 11.585938 L 7.7070312 4.2929688 C 7.5115312 4.0974687 7.255875 4 7 4 z"/>
    </symbol>
    <symbol id="telegram" viewBox="0 0 50 50" width="20px" height="20px">
        <path
            d="M46.137,6.552c-0.75-0.636-1.928-0.727-3.146-0.238l-0.002,0C41.708,6.828,6.728,21.832,5.304,22.445	c-0.259,0.09-2.521,0.934-2.288,2.814c0.208,1.695,2.026,2.397,2.248,2.478l8.893,3.045c0.59,1.964,2.765,9.21,3.246,10.758	c0.3,0.965,0.789,2.233,1.646,2.494c0.752,0.29,1.5,0.025,1.984-0.355l5.437-5.043l8.777,6.845l0.209,0.125	c0.596,0.264,1.167,0.396,1.712,0.396c0.421,0,0.825-0.079,1.211-0.237c1.315-0.54,1.841-1.793,1.896-1.935l6.556-34.077	C47.231,7.933,46.675,7.007,46.137,6.552z M22,32l-3,8l-3-10l23-17L22,32z"/>
    </symbol>
</svg>

